<svg width="373" height="137" viewBox="0 0 373 137" fill="none" xmlns="http://www.w3.org/2000/svg">
<path d="M26.8 136.8C18.8 136.8 12.44 135.44 7.72 132.72C3 130 0.639999 126.32 0.639999 121.68C9.44 121.68 16.44 120.6 21.64 118.44C26.84 116.36 30.6 113.68 32.92 110.4C35.32 107.12 37.08 103.16 38.2 98.52C38.36 97.8 38.52 97 38.68 96.12C38.92 95.24 39.12 94.24 39.28 93.12C40.96 84.08 43.32 69.48 46.36 49.32L47.08 58.32L39.04 38.16C43.44 35.12 47.28 32.92 50.56 31.56C53.92 30.12 57.12 29.4 60.16 29.4C63.6 29.4 66.36 30.24 68.44 31.92C70.52 33.6 71.56 35.84 71.56 38.64C71.56 39.84 71.12 43.32 70.24 49.08C69.36 54.84 68.04 63.28 66.28 74.4L64.6 84.96C62.36 98.8 59.64 109.44 56.44 116.88C53.24 124.4 49.28 129.6 44.56 132.48C39.92 135.36 34 136.8 26.8 136.8ZM125.68 96C122.16 96 118.72 95.68 115.36 95.04C112 94.4 108.16 93.16 103.84 91.32L109.96 76.68H133.48L130.36 96H125.68ZM100.36 96C95.88 96 92.56 94.6 90.4 91.8C88.24 89 87.16 85.12 87.16 80.16C87.16 76.16 87.76 70.28 88.96 62.52C90.16 54.76 91.8 45.36 93.88 34.32C94.6 30.08 95.76 23.32 97.36 14.04L101.2 24.84L89.92 8.76C93.68 6.03999 97.48 3.91999 101.32 2.39999C105.24 0.799995 109.12 -4.29153e-06 112.96 -4.29153e-06C116.4 -4.29153e-06 118.84 0.679996 120.28 2.04C121.8 3.39999 122.56 5.55999 122.56 8.51999C122.56 10.68 122.24 13.44 121.6 16.8C120.96 20.16 120 24.64 118.72 30.24C116.48 40.4 114.76 48.96 113.56 55.92C112.44 62.88 111.88 69.72 111.88 76.44C111.88 80.44 112.12 83.28 112.6 84.96C113.16 86.64 114.16 88.36 115.6 90.12C113.44 92.04 111 93.48 108.28 94.44C105.64 95.48 103 96 100.36 96ZM133.48 76.68C134.84 76.68 135.68 77.52 136 79.2C136.32 80.8 136.24 83.2 135.76 86.4C135.28 89.52 134.6 91.88 133.72 93.48C132.84 95.16 131.72 96 130.36 96L133.48 76.68ZM258.152 96C254.232 96 251.352 95 249.512 93C247.752 91 246.872 87.88 246.872 83.64L252.632 89.76H238.592L255.992 61.32C255.912 61.56 255.832 61.8 255.752 62.04C255.752 62.28 255.752 62.52 255.752 62.76C255.592 63.72 255.432 64.64 255.272 65.52C255.192 66.32 255.152 67.16 255.152 68.04C255.152 70.92 255.792 73.08 257.072 74.52C258.432 75.96 260.472 76.68 263.192 76.68H273.512L270.392 96H258.152ZM133.592 76.68H155.912L147.992 84.6V76.44C147.992 73.48 148.152 71.12 148.472 69.36C148.792 67.6 149.352 65.36 150.152 62.64C150.792 60.56 151.272 58.8 151.592 57.36C151.912 55.92 152.072 54.16 152.072 52.08C152.072 49.68 151.832 47.52 151.352 45.6C150.952 43.68 150.352 42.16 149.552 41.04C153.072 39.2 156.552 37.76 159.992 36.72C163.432 35.68 166.472 35.16 169.112 35.16C172.152 35.16 174.352 35.88 175.712 37.32C177.072 38.76 177.752 40.92 177.752 43.8C177.752 45.64 177.552 47.48 177.152 49.32C176.752 51.08 176.152 53.2 175.352 55.68C174.552 58.16 173.912 60.32 173.432 62.16C173.032 64 172.832 65.88 172.832 67.8C172.832 70.84 173.472 73.08 174.752 74.52C176.112 75.96 178.152 76.68 180.872 76.68H196.952L189.032 84.6V76.44C189.032 73.56 189.192 71.2 189.512 69.36C189.832 67.44 190.392 64.8 191.192 61.44C191.832 58.96 192.312 56.92 192.632 55.32C192.952 53.72 193.112 51.88 193.112 49.8C193.112 47.4 192.872 45.24 192.392 43.32C191.992 41.4 191.392 39.88 190.592 38.76C194.112 36.92 197.592 35.48 201.032 34.44C204.472 33.4 207.512 32.88 210.152 32.88C213.192 32.88 215.392 33.6 216.752 35.04C218.112 36.48 218.792 38.64 218.792 41.52C218.792 43.36 218.592 45.24 218.192 47.16C217.792 49 217.192 51.48 216.392 54.6C215.592 57.32 214.952 59.72 214.472 61.8C214.072 63.88 213.872 65.88 213.872 67.8C213.872 70.84 214.512 73.08 215.792 74.52C217.152 75.96 219.192 76.68 221.912 76.68H236.792L229.832 84.6V76.44C229.832 73.4 230.072 70.64 230.552 68.16C231.032 65.68 231.752 62.88 232.712 59.76C233.512 56.72 234.112 54.24 234.512 52.32C234.912 50.32 235.112 48.24 235.112 46.08C235.112 43.76 234.872 41.64 234.392 39.72C233.912 37.72 233.312 36.24 232.592 35.28C236.192 33.44 239.672 32 243.032 30.96C246.392 29.92 249.352 29.4 251.912 29.4C254.952 29.4 257.192 30.12 258.632 31.56C260.072 32.92 260.792 34.8 260.792 37.2C260.792 38.72 260.432 41.12 259.712 44.4C259.072 47.68 258.352 51.12 257.552 54.72C256.112 60.8 254.992 65.8 254.192 69.72C253.392 73.64 252.792 77.48 252.392 81.24L242.792 96H216.872C212.952 96 210.072 95 208.232 93C206.472 91 205.592 87.88 205.592 83.64L211.352 89.76H205.472L201.392 96H175.832C171.912 96 169.032 95 167.192 93C165.432 91 164.552 87.88 164.552 83.64L170.312 89.76H164.432L160.352 96H130.472L133.592 76.68ZM130.472 96C129.112 96 128.272 95.16 127.952 93.48C127.632 91.88 127.712 89.48 128.192 86.28C128.672 83.16 129.352 80.8 130.232 79.2C131.112 77.52 132.232 76.68 133.592 76.68L130.472 96ZM273.512 76.68C274.872 76.68 275.712 77.52 276.032 79.2C276.352 80.8 276.272 83.2 275.792 86.4C275.312 89.52 274.632 91.88 273.752 93.48C272.872 95.16 271.752 96 270.392 96L273.512 76.68ZM273.631 76.68H281.791C284.111 76.68 286.151 76.28 287.911 75.48C289.751 74.6 291.231 73.56 292.351 72.36C293.471 71.08 294.151 69.84 294.391 68.64L299.791 35.64C305.791 30.28 311.631 26.4 317.311 24C322.991 21.6 329.191 20.4 335.911 20.4C343.351 20.4 349.831 21.76 355.351 24.48C360.951 27.12 365.231 30.96 368.191 36C371.231 40.96 372.751 46.8 372.751 53.52C372.751 58.88 371.751 64.16 369.751 69.36C367.831 74.56 364.911 79.44 360.991 84C357.151 88.56 352.471 92.56 346.951 96H302.671L300.991 89.76H300.031C299.231 91.36 297.751 92.8 295.591 94.08C293.511 95.36 291.031 96 288.151 96H270.511L273.631 76.68ZM308.911 76.68H346.111L335.671 78.24C337.351 77.6 339.231 76.08 341.311 73.68C343.471 71.2 345.311 68.16 346.831 64.56C348.351 60.88 349.111 57 349.111 52.92C349.111 48.76 348.111 45.52 346.111 43.2C344.191 40.88 340.911 39.72 336.271 39.72C332.911 39.72 329.631 40.32 326.431 41.52C323.311 42.72 320.671 44.2 318.511 45.96L323.311 35.76L315.631 84.48L308.911 76.68ZM270.511 96C269.151 96 268.311 95.16 267.991 93.48C267.671 91.88 267.751 89.48 268.231 86.28C268.711 83.16 269.391 80.8 270.271 79.2C271.151 77.52 272.271 76.68 273.631 76.68L270.511 96Z" fill="#025351"/>
</svg>
